<?xml version="1.0" standalone="no"?>
<!DOCTYPE svg PUBLIC "-//W3C//DTD SVG 20010904//EN"
 "http://www.w3.org/TR/2001/REC-SVG-20010904/DTD/svg10.dtd">
<svg version="1.0" xmlns="http://www.w3.org/2000/svg"
 width="512.000000pt" height="512.000000pt" viewBox="0 0 512.000000 512.000000"
 preserveAspectRatio="xMidYMid meet">
<metadata>
Created by potrace 1.14, written by Peter Selinger 2001-2017
</metadata>
<g transform="translate(0.000000,512.000000) scale(0.100000,-0.100000)"
fill="#000000" stroke="none">
<path d="M395 5106 c-193 -50 -343 -203 -384 -394 -8 -38 -11 -636 -11 -2161
0 -1888 2 -2114 16 -2162 56 -193 213 -343 395 -378 87 -16 4238 -14 4309 2
201 48 360 216 390 415 7 45 10 762 8 2177 l-3 2110 -23 59 c-65 172 -206 297
-377 334 -78 17 -4253 15 -4320 -2z"/>
</g>
</svg>
